{
  "source": "C:\\Users\\Peter\\Desktop\\stuff\\MIUN\\quantitative_research\\video_compression\\videos\\BVI-HD\\BVI-HD_CDVL_videos\\ORIG\\Typing_1920x1080_60fps.mp4",
  "output": "C:\\Users\\Peter\\Desktop\\stuff\\MIUN\\quantitative_research\\video_compression\\compressed_videos\\BVI-HD\\hevc\\3\\Typing_1920x1080_60fps_hevc.mp4",
  "codec": "hevc",
  "ok": "Input #0, mov,mp4,m4a,3gp,3g2,mj2, from 'C:\\Users\\Peter\\Desktop\\stuff\\MIUN\\quantitative_research\\video_compression\\videos\\BVI-HD\\BVI-HD_CDVL_videos\\ORIG\\Typing_1920x1080_60fps.mp4':\n  Metadata:\n    major_brand     : isom\n    minor_version   : 512\n    compatible_brands: isomiso2avc1mp41\n    encoder         : Lavf54.28.101\n  Duration: 00:00:05.00, start: 0.000000, bitrate: 203453 kb/s\n  Stream #0:0[0x1](und): Video: h264 (High 4:4:4 Predictive) (avc1 / 0x31637661), yuv420p(progressive), 1920x1080, 203448 kb/s, 60 fps, 60 tbr, 60 tbn (default)\n    Metadata:\n      handler_name    : VideoHandler\n      vendor_id       : [0][0][0][0]\n[out#0/mp4 @ 0000026870d0a600] Codec AVOption b:a (set bitrate (in bits/s)) has not been used for any stream. The most likely reason is either wrong type (e.g. a video option with no video streams) or that it is a private option of some decoder which was not actually used for any stream.\nStream mapping:\n  Stream #0:0 -> #0:0 (h264 (native) -> hevc (libx265))\nPress [q] to stop, [?] for help\n[libx265 @ 00000268712d00c0] Unknown option: \"aq-mode.\nx265 [info]: HEVC encoder version 4.1+190-8f11c33ac\nx265 [info]: build info [Windows][GCC 15.1.0][64 bit] 10bit\nx265 [info]: using cpu capabilities: MMX2 SSE2Fast LZCNT SSSE3 SSE4.2 AVX FMA3 BMI2 AVX2\nx265 [info]: Main 10 profile, Level-4.1 (Main tier)\nx265 [info]: Thread pool created using 12 threads\nx265 [info]: Slices                              : 1\nx265 [info]: frame threads / pool features       : 3 / wpp(17 rows)\nx265 [info]: Coding QT: max CU size, min CU size : 64 / 8\nx265 [info]: Residual QT: max TU size, max depth : 32 / 1 inter / 1 intra\nx265 [info]: ME / range / subpel / merge         : star / 57 / 3 / 3\nx265 [info]: Keyframe min / max / scenecut / bias  : 25 / 250 / 40 / 5.00 \nx265 [info]: Lookahead / bframes / badapt        : 25 / 4 / 2\nx265 [info]: b-pyramid / weightp / weightb       : 1 / 1 / 0\nx265 [info]: References / ref-limit  cu / depth  : 4 / on / on\nx265 [info]: AQ: mode / str / qg-size / cu-tree  : 2 / 1.0 / 32 / 1\nx265 [info]: Rate Control / qCompress            : ABR-3000 kbps / 0.60\nx265 [info]: VBV/HRD buffer / max-rate / init    : 3000 / 3000 / 0.750\nx265 [info]: tools: rect limit-modes rd=4 psy-rd=2.00 rdoq=2 psy-rdoq=1.00\nx265 [info]: tools: rskip mode=1 signhide tmvp strong-intra-smoothing lslices=4\nx265 [info]: tools: deblock sao dhdr10-info\nOutput #0, mp4, to 'C:\\Users\\Peter\\Desktop\\stuff\\MIUN\\quantitative_research\\video_compression\\compressed_videos\\BVI-HD\\hevc\\3\\Typing_1920x1080_60fps_hevc.mp4':\n  Metadata:\n    major_brand     : isom\n    minor_version   : 512\n    compatible_brands: isomiso2avc1mp41\n    encoder         : Lavf62.3.100\n  Stream #0:0(und): Video: hevc (hev1 / 0x31766568), yuv420p10le(tv, progressive), 1920x1080, q=2-31, 3000 kb/s, 60 fps, 15360 tbn (default)\n    Metadata:\n      encoder         : Lavc62.11.100 libx265\n      handler_name    : VideoHandler\n      vendor_id       : [0][0][0][0]\n    Side data:\n      cpb: bitrate max/min/avg: 3000000/0/3000000 buffer size: 3000000 vbv_delay: N/A\nframe=    0 fps=0.0 q=0.0 size=       0KiB time=N/A bitrate=N/A speed=N/A elapsed=0:00:00.52    \nframe=    0 fps=0.0 q=0.0 size=       0KiB time=N/A bitrate=N/A speed=N/A elapsed=0:00:01.07    \nframe=    0 fps=0.0 q=0.0 size=       0KiB time=N/A bitrate=N/A speed=N/A elapsed=0:00:01.59    \nframe=    0 fps=0.0 q=0.0 size=       0KiB time=N/A bitrate=N/A speed=N/A elapsed=0:00:02.11    \nframe=    0 fps=0.0 q=0.0 size=       0KiB time=N/A bitrate=N/A speed=N/A elapsed=0:00:02.63    \nframe=    0 fps=0.0 q=0.0 size=       0KiB time=N/A bitrate=N/A speed=N/A elapsed=0:00:03.16    \nframe=    0 fps=0.0 q=0.0 size=       0KiB time=N/A bitrate=N/A speed=N/A elapsed=0:00:03.70    \nframe=    0 fps=0.0 q=0.0 size=       0KiB time=N/A bitrate=N/A speed=N/A elapsed=0:00:04.24    \nframe=    0 fps=0.0 q=0.0 size=       0KiB time=N/A bitrate=N/A speed=N/A elapsed=0:00:04.74    \nframe=    0 fps=0.0 q=0.0 size=       0KiB time=N/A bitrate=N/A speed=N/A elapsed=0:00:05.26    \nframe=    0 fps=0.0 q=0.0 size=       0KiB time=N/A bitrate=N/A speed=N/A elapsed=0:00:05.79    \nframe=    1 fps=0.2 q=33.6 size=       0KiB time=-00:00:00.01 bitrate=N/A speed=N/A elapsed=0:00:06.32    \nframe=    1 fps=0.1 q=33.6 size=       0KiB time=-00:00:00.01 bitrate=N/A speed=N/A elapsed=0:00:06.84    \nframe=    2 fps=0.3 q=39.8 size=       0KiB time=00:00:00.00 bitrate=N/A speed=   0x elapsed=0:00:07.36    \nframe=    3 fps=0.4 q=41.4 size=       0KiB time=00:00:00.01 bitrate=  21.1kbits/s speed=0.00211x elapsed=0:00:07.88    \nframe=    3 fps=0.4 q=41.4 size=       0KiB time=00:00:00.01 bitrate=  21.1kbits/s speed=0.00198x elapsed=0:00:08.41    \nframe=    4 fps=0.4 q=42.2 size=       0KiB time=00:00:00.03 bitrate=  10.6kbits/s speed=0.00373x elapsed=0:00:08.93    \nframe=    4 fps=0.4 q=42.2 size=       0KiB time=00:00:00.03 bitrate=  10.6kbits/s speed=0.00353x elapsed=0:00:09.45    \nframe=    4 fps=0.4 q=42.2 size=       0KiB time=00:00:00.03 bitrate=  10.6kbits/s speed=0.00334x elapsed=0:00:09.98    \nframe=    4 fps=0.4 q=42.2 size=       0KiB time=00:00:00.03 bitrate=  10.6kbits/s speed=0.00317x elapsed=0:00:10.50    \nframe=    4 fps=0.4 q=42.2 size=       0KiB time=00:00:00.03 bitrate=  10.6kbits/s speed=0.00302x elapsed=0:00:11.02    \nframe=    5 fps=0.4 q=39.2 size=       0KiB time=00:00:00.05 bitrate=   7.0kbits/s speed=0.00433x elapsed=0:00:11.55    \nframe=    5 fps=0.4 q=39.2 size=       0KiB time=00:00:00.05 bitrate=   7.0kbits/s speed=0.00413x elapsed=0:00:12.11    \nframe=    5 fps=0.4 q=39.2 size=       0KiB time=00:00:00.05 bitrate=   7.0kbits/s speed=0.00395x elapsed=0:00:12.66    \nframe=    5 fps=0.4 q=39.2 size=       0KiB time=00:00:00.05 bitrate=   7.0kbits/s speed=0.00379x elapsed=0:00:13.19    \nframe=    6 fps=0.4 q=38.2 size=       0KiB time=00:00:00.06 bitrate=   5.3kbits/s speed=0.00485x elapsed=0:00:13.74    \nframe=    6 fps=0.4 q=38.2 size=       0KiB time=00:00:00.06 bitrate=   5.3kbits/s speed=0.00467x elapsed=0:00:14.27    \nframe=    6 fps=0.4 q=38.2 size=       0KiB time=00:00:00.06 bitrate=   5.3kbits/s speed=0.00451x elapsed=0:00:14.79    \nframe=    6 fps=0.4 q=38.2 size=       0KiB time=00:00:00.06 bitrate=   5.3kbits/s speed=0.00434x elapsed=0:00:15.34    \nframe=    7 fps=0.4 q=30.9 size=       0KiB time=00:00:00.08 bitrate=   4.2kbits/s speed=0.00525x elapsed=0:00:15.86    \nframe=    7 fps=0.4 q=30.9 size=       0KiB time=00:00:00.08 bitrate=   4.2kbits/s speed=0.00509x elapsed=0:00:16.38    \nframe=    7 fps=0.4 q=30.9 size=       0KiB time=00:00:00.08 bitrate=   4.2kbits/s speed=0.00493x elapsed=0:00:16.92    \nframe=    8 fps=0.5 q=32.7 size=       0KiB time=00:00:00.10 bitrate=   3.5kbits/s speed=0.00573x elapsed=0:00:17.44    \nframe=    8 fps=0.4 q=32.7 size=       0KiB time=00:00:00.10 bitrate=   3.5kbits/s speed=0.00556x elapsed=0:00:17.97    \nframe=    8 fps=0.4 q=32.7 size=       0KiB time=00:00:00.10 bitrate=   3.5kbits/s speed=0.00541x elapsed=0:00:18.48    \nframe=    8 fps=0.4 q=32.7 size=       0KiB time=00:00:00.10 bitrate=   3.5kbits/s speed=0.00526x elapsed=0:00:19.01    \nframe=    9 fps=0.5 q=34.1 size=       0KiB time=00:00:00.11 bitrate=   3.0kbits/s speed=0.00597x elapsed=0:00:19.55    \nframe=    9 fps=0.4 q=34.1 size=       0KiB time=00:00:00.11 bitrate=   3.0kbits/s speed=0.00581x elapsed=0:00:20.09    \nframe=    9 fps=0.4 q=34.1 size=       0KiB time=00:00:00.11 bitrate=   3.0kbits/s speed=0.00565x elapsed=0:00:20.65    \nframe=   10 fps=0.5 q=35.2 size=       0KiB time=00:00:00.13 bitrate=   2.6kbits/s speed=0.00629x elapsed=0:00:21.18    \nframe=   11 fps=0.5 q=29.8 size=       0KiB time=00:00:00.15 bitrate=   2.3kbits/s speed=0.0069x elapsed=0:00:21.74    \nframe=   11 fps=0.5 q=29.8 size=       0KiB time=00:00:00.15 bitrate=   2.3kbits/s speed=0.00674x elapsed=0:00:22.26    \nframe=   12 fps=0.5 q=34.9 size=       0KiB time=00:00:00.16 bitrate=   2.1kbits/s speed=0.00731x elapsed=0:00:22.79    \nframe=   12 fps=0.5 q=34.9 size=       0KiB time=00:00:00.16 bitrate=   2.1kbits/s speed=0.00714x elapsed=0:00:23.34    \nframe=   12 fps=0.5 q=34.9 size=       0KiB time=00:00:00.16 bitrate=   2.1kbits/s speed=0.00698x elapsed=0:00:23.88    \nframe=   12 fps=0.5 q=34.9 size=       0KiB time=00:00:00.16 bitrate=   2.1kbits/s speed=0.00682x elapsed=0:00:24.42    \nframe=   12 fps=0.5 q=34.9 size=       0KiB time=00:00:00.16 bitrate=   2.1kbits/s speed=0.00668x elapsed=0:00:24.95    \nframe=   12 fps=0.5 q=34.9 size=       0KiB time=00:00:00.16 bitrate=   2.1kbits/s speed=0.00654x elapsed=0:00:25.48    \nframe=   13 fps=0.5 q=35.5 size=       0KiB time=00:00:00.18 bitrate=   1.9kbits/s speed=0.00705x elapsed=0:00:26.00    \nframe=   13 fps=0.5 q=35.5 size=       0KiB time=00:00:00.18 bitrate=   1.9kbits/s speed=0.00691x elapsed=0:00:26.52    \nframe=   13 fps=0.5 q=35.5 size=       0KiB time=00:00:00.18 bitrate=   1.9kbits/s speed=0.00677x elapsed=0:00:27.07    \nframe=   13 fps=0.5 q=35.5 size=       0KiB time=00:00:00.18 bitrate=   1.9kbits/s speed=0.00663x elapsed=0:00:27.65    \nframe=   13 fps=0.5 q=35.5 size=       0KiB time=00:00:00.18 bitrate=   1.9kbits/s speed=0.0065x elapsed=0:00:28.20    \nframe=   14 fps=0.5 q=35.3 size=       0KiB time=00:00:00.20 bitrate=   1.8kbits/s speed=0.00696x elapsed=0:00:28.75    \nframe=   14 fps=0.5 q=35.3 size=       0KiB time=00:00:00.20 bitrate=   1.8kbits/s speed=0.00683x elapsed=0:00:29.28    \nframe=   14 fps=0.5 q=35.3 size=       0KiB time=00:00:00.20 bitrate=   1.8kbits/s speed=0.00671x elapsed=0:00:29.81    \nframe=   15 fps=0.5 q=28.5 size=       0KiB time=00:00:00.21 bitrate=   1.6kbits/s speed=0.00714x elapsed=0:00:30.36    \nframe=   15 fps=0.5 q=28.5 size=       0KiB time=00:00:00.21 bitrate=   1.6kbits/s speed=0.00701x elapsed=0:00:30.90    \nframe=   15 fps=0.5 q=28.5 size=       0KiB time=00:00:00.21 bitrate=   1.6kbits/s speed=0.00689x elapsed=0:00:31.44    \nframe=   16 fps=0.5 q=33.6 size=       0KiB time=00:00:00.23 bitrate=   1.5kbits/s speed=0.00729x elapsed=0:00:31.98    \nframe=   16 fps=0.5 q=33.6 size=       0KiB time=00:00:00.23 bitrate=   1.5kbits/s speed=0.00717x elapsed=0:00:32.54    \nframe=   16 fps=0.5 q=33.6 size=       0KiB time=00:00:00.23 bitrate=   1.5kbits/s speed=0.00705x elapsed=0:00:33.11    \nframe=   16 fps=0.5 q=33.6 size=       0KiB time=00:00:00.23 bitrate=   1.5kbits/s speed=0.00693x elapsed=0:00:33.66    \nframe=   17 fps=0.5 q=34.1 size=       0KiB time=00:00:00.25 bitrate=   1.4kbits/s speed=0.00731x elapsed=0:00:34.20    \nframe=   17 fps=0.5 q=34.1 size=       0KiB time=00:00:00.25 bitrate=   1.4kbits/s speed=0.00719x elapsed=0:00:34.74    \nframe=   17 fps=0.5 q=34.1 size=       0KiB time=00:00:00.25 bitrate=   1.4kbits/s speed=0.00708x elapsed=0:00:35.29    \nframe=   17 fps=0.5 q=34.1 size=       0KiB time=00:00:00.25 bitrate=   1.4kbits/s speed=0.00698x elapsed=0:00:35.82    \nframe=   18 fps=0.5 q=34.0 size=       0KiB time=00:00:00.26 bitrate=   1.3kbits/s speed=0.00734x elapsed=0:00:36.34    \nframe=   18 fps=0.5 q=34.0 size=       0KiB time=00:00:00.26 bitrate=   1.3kbits/s speed=0.00723x elapsed=0:00:36.87    \nframe=   18 fps=0.5 q=34.0 size=       0KiB time=00:00:00.26 bitrate=   1.3kbits/s speed=0.00713x elapsed=0:00:37.42    \nframe=   18 fps=0.5 q=34.0 size=       0KiB time=00:00:00.26 bitrate=   1.3kbits/s speed=0.00703x elapsed=0:00:37.95    \nframe=   18 fps=0.5 q=34.0 size=       0KiB time=00:00:00.26 bitrate=   1.3kbits/s speed=0.00693x elapsed=0:00:38.50    \nframe=   18 fps=0.5 q=34.0 size=       0KiB time=00:00:00.26 bitrate=   1.3kbits/s speed=0.00683x elapsed=0:00:39.03    \nframe=   19 fps=0.5 q=28.2 size=       0KiB time=00:00:00.28 bitrate=   1.2kbits/s speed=0.00716x elapsed=0:00:39.55    \nframe=   19 fps=0.5 q=28.2 size=       0KiB time=00:00:00.28 bitrate=   1.2kbits/s speed=0.00707x elapsed=0:00:40.07    \nframe=   19 fps=0.5 q=28.2 size=       0KiB time=00:00:00.28 bitrate=   1.2kbits/s speed=0.00698x elapsed=0:00:40.60    \nframe=   19 fps=0.5 q=28.2 size=       0KiB time=00:00:00.28 bitrate=   1.2kbits/s speed=0.00688x elapsed=0:00:41.18    \nframe=   19 fps=0.5 q=28.2 size=       0KiB time=00:00:00.28 bitrate=   1.2kbits/s speed=0.00679x elapsed=0:00:41.73    \nframe=   20 fps=0.5 q=33.5 size=       0KiB time=00:00:00.30 bitrate=   1.2kbits/s speed=0.00709x elapsed=0:00:42.29    \nframe=   20 fps=0.5 q=33.5 size=       0KiB time=00:00:00.30 bitrate=   1.2kbits/s speed=0.00701x elapsed=0:00:42.81    \nframe=   20 fps=0.5 q=33.5 size=       0KiB time=00:00:00.30 bitrate=   1.2kbits/s speed=0.00692x elapsed=0:00:43.34    \nframe=   20 fps=0.5 q=33.5 size=       0KiB time=00:00:00.30 bitrate=   1.2kbits/s speed=0.00683x elapsed=0:00:43.90    \nframe=   20 fps=0.4 q=33.5 size=       0KiB time=00:00:00.30 bitrate=   1.2kbits/s speed=0.00675x elapsed=0:00:44.46    \nframe=   20 fps=0.4 q=33.5 size=       0KiB time=00:00:00.30 bitrate=   1.2kbits/s speed=0.00667x elapsed=0:00:44.99    \nframe=   20 fps=0.4 q=33.5 size=       0KiB time=00:00:00.30 bitrate=   1.2kbits/s speed=0.00659x elapsed=0:00:45.51    \nframe=   20 fps=0.4 q=33.5 size=       0KiB time=00:00:00.30 bitrate=   1.2kbits/s speed=0.00651x elapsed=0:00:46.05    \nframe=   21 fps=0.5 q=34.2 size=       0KiB time=00:00:00.31 bitrate=   1.1kbits/s speed=0.00679x elapsed=0:00:46.61    \nframe=   21 fps=0.4 q=34.2 size=       0KiB time=00:00:00.31 bitrate=   1.1kbits/s speed=0.00672x elapsed=0:00:47.14    \nframe=   21 fps=0.4 q=34.2 size=       0KiB time=00:00:00.31 bitrate=   1.1kbits/s speed=0.00664x elapsed=0:00:47.66    \nframe=   21 fps=0.4 q=34.2 size=       0KiB time=00:00:00.31 bitrate=   1.1kbits/s speed=0.00657x elapsed=0:00:48.22    \nframe=   21 fps=0.4 q=34.2 size=       0KiB time=00:00:00.31 bitrate=   1.1kbits/s speed=0.00648x elapsed=0:00:48.83    \nframe=   22 fps=0.4 q=33.2 size=       0KiB time=00:00:00.33 bitrate=   1.1kbits/s speed=0.00674x elapsed=0:00:49.44    \nframe=   22 fps=0.4 q=33.2 size=       0KiB time=00:00:00.33 bitrate=   1.1kbits/s speed=0.00667x elapsed=0:00:50.00    \nframe=   22 fps=0.4 q=33.2 size=       0KiB time=00:00:00.33 bitrate=   1.1kbits/s speed=0.00659x elapsed=0:00:50.61    \nframe=   22 fps=0.4 q=33.2 size=       0KiB time=00:00:00.33 bitrate=   1.1kbits/s speed=0.00652x elapsed=0:00:51.15    \nframe=   22 fps=0.4 q=33.2 size=       0KiB time=00:00:00.33 bitrate=   1.1kbits/s speed=0.00645x elapsed=0:00:51.68    \nframe=   22 fps=0.4 q=33.2 size=       0KiB time=00:00:00.33 bitrate=   1.1kbits/s speed=0.00638x elapsed=0:00:52.21    \nframe=   22 fps=0.4 q=33.2 size=       0KiB time=00:00:00.33 bitrate=   1.1kbits/s speed=0.00631x elapsed=0:00:52.83    \nframe=   22 fps=0.4 q=33.2 size=       0KiB time=00:00:00.33 bitrate=   1.1kbits/s speed=0.00624x elapsed=0:00:53.40    \nframe=   23 fps=0.4 q=26.7 size=       0KiB time=00:00:00.35 bitrate=   1.0kbits/s speed=0.00649x elapsed=0:00:53.92    \nframe=   24 fps=0.4 q=31.5 size=       0KiB time=00:00:00.36 bitrate=   1.0kbits/s speed=0.00673x elapsed=0:00:54.47    \nframe=   24 fps=0.4 q=31.5 size=       0KiB time=00:00:00.36 bitrate=   1.0kbits/s speed=0.00666x elapsed=0:00:55.02    \nframe=   25 fps=0.4 q=32.0 size=       0KiB time=00:00:00.38 bitrate=   0.9kbits/s speed=0.0069x elapsed=0:00:55.56    \nframe=   25 fps=0.4 q=32.0 size=       0KiB time=00:00:00.38 bitrate=   0.9kbits/s speed=0.00683x elapsed=0:00:56.08    \nframe=   25 fps=0.4 q=32.0 size=       0KiB time=00:00:00.38 bitrate=   0.9kbits/s speed=0.00677x elapsed=0:00:56.62    \nframe=   26 fps=0.5 q=32.0 size=       0KiB time=00:00:00.40 bitrate=   0.9kbits/s speed=0.007x elapsed=0:00:57.13    \nframe=   26 fps=0.5 q=32.0 size=       0KiB time=00:00:00.40 bitrate=   0.9kbits/s speed=0.00694x elapsed=0:00:57.66    \nframe=   27 fps=0.5 q=32.0 size=       0KiB time=00:00:00.41 bitrate=   0.8kbits/s speed=0.00716x elapsed=0:00:58.16    \nframe=   27 fps=0.5 q=32.0 size=       0KiB time=00:00:00.41 bitrate=   0.8kbits/s speed=0.0071x elapsed=0:00:58.68    \nframe=   28 fps=0.5 q=26.2 size=       0KiB time=00:00:00.43 bitrate=   0.8kbits/s speed=0.00732x elapsed=0:00:59.20    \nframe=   28 fps=0.5 q=26.2 size=       0KiB time=00:00:00.43 bitrate=   0.8kbits/s speed=0.00726x elapsed=0:00:59.71    \nframe=   29 fps=0.5 q=32.0 size=       0KiB time=00:00:00.45 bitrate=   0.8kbits/s speed=0.00747x elapsed=0:01:00.23    \nframe=   29 fps=0.5 q=32.0 size=       0KiB time=00:00:00.45 bitrate=   0.8kbits/s speed=0.00741x elapsed=0:01:00.76    \nframe=   30 fps=0.5 q=33.0 size=       0KiB time=00:00:00.46 bitrate=   0.8kbits/s speed=0.00761x elapsed=0:01:01.31    \nframe=   30 fps=0.5 q=33.0 size=       0KiB time=00:00:00.46 bitrate=   0.8kbits/s speed=0.00755x elapsed=0:01:01.84    \nframe=   30 fps=0.5 q=33.0 size=       0KiB time=00:00:00.46 bitrate=   0.8kbits/s speed=0.00748x elapsed=0:01:02.36    \nframe=   31 fps=0.5 q=32.0 size=       0KiB time=00:00:00.48 bitrate=   0.7kbits/s speed=0.00769x elapsed=0:01:02.88    \nframe=   31 fps=0.5 q=32.0 size=       0KiB time=00:00:00.48 bitrate=   0.7kbits/s speed=0.00762x elapsed=0:01:03.42    \nframe=   32 fps=0.5 q=32.0 size=       0KiB time=00:00:00.50 bitrate=   0.7kbits/s speed=0.00782x elapsed=0:01:03.93    \nframe=   33 fps=0.5 q=25.4 size=       0KiB time=00:00:00.51 bitrate=   0.7kbits/s speed=0.00802x elapsed=0:01:04.45    \nframe=   33 fps=0.5 q=25.4 size=       0KiB time=00:00:00.51 bitrate=   0.7kbits/s speed=0.00795x elapsed=0:01:04.97    \nframe=   34 fps=0.5 q=29.7 size=       0KiB time=00:00:00.53 bitrate=   0.7kbits/s speed=0.00814x elapsed=0:01:05.48    \nframe=   34 fps=0.5 q=29.7 size=       0KiB time=00:00:00.53 bitrate=   0.7kbits/s speed=0.00808x elapsed=0:01:06.00    \nframe=   35 fps=0.5 q=32.2 size=       0KiB time=00:00:00.55 bitrate=   0.6kbits/s speed=0.00827x elapsed=0:01:06.52    \nframe=   35 fps=0.5 q=32.2 size=       0KiB time=00:00:00.55 bitrate=   0.6kbits/s speed=0.0082x elapsed=0:01:07.04    \nframe=   36 fps=0.5 q=31.9 size=       0KiB time=00:00:00.56 bitrate=   0.6kbits/s speed=0.00839x elapsed=0:01:07.56    \nframe=   37 fps=0.5 q=32.0 size=       0KiB time=00:00:00.58 bitrate=   0.6kbits/s speed=0.00857x elapsed=0:01:08.08    \nframe=   37 fps=0.5 q=32.0 size=       0KiB time=00:00:00.58 bitrate=   0.6kbits/s speed=0.0085x elapsed=0:01:08.61    \nframe=   38 fps=0.5 q=25.3 size=       0KiB time=00:00:00.60 bitrate=   0.6kbits/s speed=0.00868x elapsed=0:01:09.13    \nframe=   39 fps=0.6 q=30.3 size=       0KiB time=00:00:00.61 bitrate=   0.6kbits/s speed=0.00886x elapsed=0:01:09.63    \nframe=   39 fps=0.6 q=30.3 size=       0KiB time=00:00:00.61 bitrate=   0.6kbits/s speed=0.00879x elapsed=0:01:10.16    \nframe=   40 fps=0.6 q=31.2 size=       0KiB time=00:00:00.63 bitrate=   0.6kbits/s speed=0.00896x elapsed=0:01:10.69    \nframe=   40 fps=0.6 q=31.2 size=       0KiB time=00:00:00.63 bitrate=   0.6kbits/s speed=0.00889x elapsed=0:01:11.20    \nframe=   40 fps=0.6 q=31.2 size=       0KiB time=00:00:00.63 bitrate=   0.6kbits/s speed=0.00883x elapsed=0:01:11.72    \nframe=   40 fps=0.6 q=31.2 size=       0KiB time=00:00:00.63 bitrate=   0.6kbits/s speed=0.00877x elapsed=0:01:12.23    \nframe=   41 fps=0.6 q=31.2 size=       0KiB time=00:00:00.65 bitrate=   0.5kbits/s speed=0.00893x elapsed=0:01:12.75    \nframe=   41 fps=0.6 q=31.2 size=       0KiB time=00:00:00.65 bitrate=   0.5kbits/s speed=0.00887x elapsed=0:01:13.28    \nframe=   41 fps=0.6 q=31.2 size=       0KiB time=00:00:00.65 bitrate=   0.5kbits/s speed=0.00881x elapsed=0:01:13.80    \nframe=   42 fps=0.6 q=31.1 size=       0KiB time=00:00:00.66 bitrate=   0.5kbits/s speed=0.00897x elapsed=0:01:14.31    \nframe=   42 fps=0.6 q=31.1 size=       0KiB time=00:00:00.66 bitrate=   0.5kbits/s speed=0.00891x elapsed=0:01:14.84    \nframe=   42 fps=0.6 q=31.1 size=       0KiB time=00:00:00.66 bitrate=   0.5kbits/s speed=0.00885x elapsed=0:01:15.36    \nframe=   43 fps=0.6 q=24.4 size=       0KiB time=00:00:00.68 bitrate=   0.5kbits/s speed=0.00901x elapsed=0:01:15.87    \nframe=   44 fps=0.6 q=31.1 size=       0KiB time=00:00:00.70 bitrate=   0.5kbits/s speed=0.00916x elapsed=0:01:16.39    \nframe=   44 fps=0.6 q=31.1 size=       0KiB time=00:00:00.70 bitrate=   0.5kbits/s speed=0.0091x elapsed=0:01:16.91    \nframe=   45 fps=0.6 q=31.2 size=       0KiB time=00:00:00.71 bitrate=   0.5kbits/s speed=0.00926x elapsed=0:01:17.42    \nframe=   45 fps=0.6 q=31.2 size=       0KiB time=00:00:00.71 bitrate=   0.5kbits/s speed=0.00919x elapsed=0:01:17.96    \nframe=   45 fps=0.6 q=31.2 size=       0KiB time=00:00:00.71 bitrate=   0.5kbits/s speed=0.00913x elapsed=0:01:18.51    \nframe=   45 fps=0.6 q=31.2 size=       0KiB time=00:00:00.71 bitrate=   0.5kbits/s speed=0.00907x elapsed=0:01:19.05    \nframe=   46 fps=0.6 q=30.3 size=       0KiB time=00:00:00.73 bitrate=   0.5kbits/s speed=0.00922x elapsed=0:01:19.56    \nframe=   46 fps=0.6 q=30.3 size=       0KiB time=00:00:00.73 bitrate=   0.5kbits/s speed=0.00916x elapsed=0:01:20.09    \nframe=   47 fps=0.6 q=30.1 size=       0KiB time=00:00:00.75 bitrate=   0.5kbits/s speed=0.0093x elapsed=0:01:20.61    \nframe=   47 fps=0.6 q=30.1 size=       0KiB time=00:00:00.75 bitrate=   0.5kbits/s speed=0.00924x elapsed=0:01:21.12    \nframe=   48 fps=0.6 q=24.5 size=       0KiB time=00:00:00.76 bitrate=   0.5kbits/s speed=0.00939x elapsed=0:01:21.65    \nframe=   48 fps=0.6 q=24.5 size=       0KiB time=00:00:00.76 bitrate=   0.5kbits/s speed=0.00933x elapsed=0:01:22.18    \nframe=   49 fps=0.6 q=30.3 size=     256KiB time=00:00:00.78 bitrate=2677.7kbits/s speed=0.00947x elapsed=0:01:22.71    \nframe=   49 fps=0.6 q=30.3 size=     256KiB time=00:00:00.78 bitrate=2677.7kbits/s speed=0.00941x elapsed=0:01:23.23    \nframe=   50 fps=0.6 q=30.2 size=     256KiB time=00:00:00.80 bitrate=2621.9kbits/s speed=0.00955x elapsed=0:01:23.76    \nframe=   50 fps=0.6 q=30.2 size=     256KiB time=00:00:00.80 bitrate=2621.9kbits/s speed=0.00949x elapsed=0:01:24.29    \nframe=   50 fps=0.6 q=30.2 size=     256KiB time=00:00:00.80 bitrate=2621.9kbits/s speed=0.00943x elapsed=0:01:24.83    \nframe=   50 fps=0.6 q=30.2 size=     256KiB time=00:00:00.80 bitrate=2621.9kbits/s speed=0.00937x elapsed=0:01:25.35    \nframe=   51 fps=0.6 q=30.0 size=     256KiB time=00:00:00.81 bitrate=2568.4kbits/s speed=0.00951x elapsed=0:01:25.85    \nframe=   52 fps=0.6 q=30.2 size=     256KiB time=00:00:00.83 bitrate=2517.0kbits/s speed=0.00965x elapsed=0:01:26.37    \nframe=   53 fps=0.6 q=24.4 size=     256KiB time=00:00:00.85 bitrate=2467.7kbits/s speed=0.00978x elapsed=0:01:26.88    \nframe=   53 fps=0.6 q=24.4 size=     256KiB time=00:00:00.85 bitrate=2467.7kbits/s speed=0.00972x elapsed=0:01:27.43    \nframe=   53 fps=0.6 q=24.4 size=     256KiB time=00:00:00.85 bitrate=2467.7kbits/s speed=0.00966x elapsed=0:01:27.95    \nframe=   54 fps=0.6 q=31.1 size=     256KiB time=00:00:00.85 bitrate=2467.7kbits/s speed=0.00961x elapsed=0:01:28.49    \nframe=   55 fps=0.6 q=31.0 size=     256KiB time=00:00:00.88 bitrate=2374.5kbits/s speed=0.00992x elapsed=0:01:29.03    \nframe=   55 fps=0.6 q=31.0 size=     256KiB time=00:00:00.88 bitrate=2374.5kbits/s speed=0.00986x elapsed=0:01:29.57    \nframe=   55 fps=0.6 q=31.0 size=     256KiB time=00:00:00.88 bitrate=2374.5kbits/s speed=0.0098x elapsed=0:01:30.11    \nframe=   55 fps=0.6 q=31.0 size=     256KiB time=00:00:00.88 bitrate=2374.5kbits/s speed=0.00974x elapsed=0:01:30.67    \nframe=   55 fps=0.6 q=31.0 size=     256KiB time=00:00:00.88 bitrate=2374.5kbits/s speed=0.00968x elapsed=0:01:31.28    \nframe=   55 fps=0.6 q=31.0 size=     256KiB time=00:00:00.88 bitrate=2374.5kbits/s speed=0.00961x elapsed=0:01:31.89    \nframe=   56 fps=0.6 q=30.1 size=     256KiB time=00:00:00.90 bitrate=2330.6kbits/s speed=0.00974x elapsed=0:01:32.42    \nframe=   56 fps=0.6 q=30.1 size=     256KiB time=00:00:00.90 bitrate=2330.6kbits/s speed=0.00968x elapsed=0:01:32.98    \nframe=   56 fps=0.6 q=30.1 size=     256KiB time=00:00:00.90 bitrate=2330.6kbits/s speed=0.00962x elapsed=0:01:33.56    \nframe=   57 fps=0.6 q=29.2 size=     256KiB time=00:00:00.91 bitrate=2288.2kbits/s speed=0.00974x elapsed=0:01:34.10    \nframe=   58 fps=0.6 q=24.4 size=     256KiB time=00:00:00.93 bitrate=2247.3kbits/s speed=0.00986x elapsed=0:01:34.64    \nframe=   58 fps=0.6 q=24.4 size=     256KiB time=00:00:00.93 bitrate=2247.3kbits/s speed=0.00981x elapsed=0:01:35.15    \nframe=   59 fps=0.6 q=29.0 size=     256KiB time=00:00:00.95 bitrate=2207.9kbits/s speed=0.00993x elapsed=0:01:35.69    \nframe=   59 fps=0.6 q=29.0 size=     256KiB time=00:00:00.95 bitrate=2207.9kbits/s speed=0.00987x elapsed=0:01:36.23    \nframe=   59 fps=0.6 q=29.0 size=     256KiB time=00:00:00.95 bitrate=2207.9kbits/s speed=0.00982x elapsed=0:01:36.76    \nframe=   59 fps=0.6 q=29.0 size=     256KiB time=00:00:00.95 bitrate=2207.9kbits/s speed=0.00977x elapsed=0:01:37.27    \nframe=   59 fps=0.6 q=29.0 size=     256KiB time=00:00:00.95 bitrate=2207.9kbits/s speed=0.00971x elapsed=0:01:37.81    \nframe=   59 fps=0.6 q=29.0 size=     256KiB time=00:00:00.95 bitrate=2207.9kbits/s speed=0.00966x elapsed=0:01:38.38    \nframe=   60 fps=0.6 q=30.1 size=     256KiB time=00:00:00.96 bitrate=2169.8kbits/s speed=0.00977x elapsed=0:01:38.90    \nframe=   60 fps=0.6 q=30.1 size=     256KiB time=00:00:00.96 bitrate=2169.8kbits/s speed=0.00972x elapsed=0:01:39.42    \nframe=   60 fps=0.6 q=30.1 size=     256KiB time=00:00:00.96 bitrate=2169.8kbits/s speed=0.00967x elapsed=0:01:39.98    \nframe=   60 fps=0.6 q=30.1 size=     256KiB time=00:00:00.96 bitrate=2169.8kbits/s speed=0.00961x elapsed=0:01:40.57    \nframe=   60 fps=0.6 q=30.1 size=     256KiB time=00:00:00.96 bitrate=2169.8kbits/s speed=0.00956x elapsed=0:01:41.11    \nframe=   61 fps=0.6 q=29.2 size=     256KiB time=00:00:00.98 bitrate=2133.1kbits/s speed=0.00967x elapsed=0:01:41.64    \nframe=   61 fps=0.6 q=29.2 size=     256KiB time=00:00:00.98 bitrate=2133.1kbits/s speed=0.00962x elapsed=0:01:42.17    \nframe=   61 fps=0.6 q=29.2 size=     256KiB time=00:00:00.98 bitrate=2133.1kbits/s speed=0.00957x elapsed=0:01:42.75    \nframe=   62 fps=0.6 q=23.4 size=     256KiB time=00:00:01.00 bitrate=2097.5kbits/s speed=0.00968x elapsed=0:01:43.35    \nframe=   62 fps=0.6 q=23.4 size=     256KiB time=00:00:01.00 bitrate=2097.5kbits/s speed=0.00962x elapsed=0:01:43.90    \nframe=   63 fps=0.6 q=28.0 size=     256KiB time=00:00:01.01 bitrate=2063.1kbits/s speed=0.00973x elapsed=0:01:44.43    \nframe=   63 fps=0.6 q=28.0 size=     256KiB time=00:00:01.01 bitrate=2063.1kbits/s speed=0.00968x elapsed=0:01:44.97    \nframe=   63 fps=0.6 q=28.0 size=     256KiB time=00:00:01.01 bitrate=2063.1kbits/s speed=0.00963x elapsed=0:01:45.54    \nframe=   63 fps=0.6 q=28.0 size=     256KiB time=00:00:01.01 bitrate=2063.1kbits/s speed=0.00957x elapsed=0:01:46.19    \nframe=   63 fps=0.6 q=28.0 size=     256KiB time=00:00:01.01 bitrate=2063.1kbits/s speed=0.00952x elapsed=0:01:46.78    \nframe=   63 fps=0.6 q=28.0 size=     256KiB time=00:00:01.01 bitrate=2063.1kbits/s speed=0.00947x elapsed=0:01:47.33    \nframe=   63 fps=0.6 q=28.0 size=     256KiB time=00:00:01.01 bitrate=2063.1kbits/s speed=0.00942x elapsed=0:01:47.88    \nframe=   63 fps=0.6 q=28.0 size=     256KiB time=00:00:01.01 bitrate=2063.1kbits/s speed=0.00938x elapsed=0:01:48.43    \nframe=   63 fps=0.6 q=28.0 size=     256KiB time=00:00:01.01 bitrate=2063.1kbits/s speed=0.00933x elapsed=0:01:48.96    \nframe=   63 fps=0.6 q=28.0 size=     256KiB time=00:00:01.01 bitrate=2063.1kbits/s speed=0.00929x elapsed=0:01:49.47    \nframe=   63 fps=0.6 q=28.0 size=     256KiB time=00:00:01.01 bitrate=2063.1kbits/s speed=0.00924x elapsed=0:01:50.04    \nframe=   64 fps=0.6 q=29.6 size=     256KiB time=00:00:01.03 bitrate=2029.8kbits/s speed=0.00935x elapsed=0:01:50.57    \nframe=   64 fps=0.6 q=29.6 size=     256KiB time=00:00:01.03 bitrate=2029.8kbits/s speed=0.0093x elapsed=0:01:51.12    \nframe=   64 fps=0.6 q=29.6 size=     256KiB time=00:00:01.03 bitrate=2029.8kbits/s speed=0.00925x elapsed=0:01:51.68    \nframe=   64 fps=0.6 q=29.6 size=     256KiB time=00:00:01.03 bitrate=2029.8kbits/s speed=0.00921x elapsed=0:01:52.25    \nframe=   64 fps=0.6 q=29.6 size=     256KiB time=00:00:01.03 bitrate=2029.8kbits/s speed=0.00916x elapsed=0:01:52.80    \nframe=   64 fps=0.6 q=29.6 size=     256KiB time=00:00:01.03 bitrate=2029.8kbits/s speed=0.00911x elapsed=0:01:53.37    \nframe=   64 fps=0.6 q=29.6 size=     256KiB time=00:00:01.03 bitrate=2029.8kbits/s speed=0.00907x elapsed=0:01:53.97    \nframe=   64 fps=0.6 q=29.6 size=     256KiB time=00:00:01.03 bitrate=2029.8kbits/s speed=0.00902x elapsed=0:01:54.53    \nframe=   65 fps=0.6 q=30.0 size=     256KiB time=00:00:01.05 bitrate=1997.6kbits/s speed=0.00913x elapsed=0:01:55.05    \nframe=   65 fps=0.6 q=30.0 size=     256KiB time=00:00:01.05 bitrate=1997.6kbits/s speed=0.00909x elapsed=0:01:55.56    \nframe=   65 fps=0.6 q=30.0 size=     256KiB time=00:00:01.05 bitrate=1997.6kbits/s speed=0.00904x elapsed=0:01:56.08    \nframe=   65 fps=0.6 q=30.0 size=     256KiB time=00:00:01.05 bitrate=1997.6kbits/s speed=0.009x elapsed=0:01:56.62    \nframe=   65 fps=0.6 q=30.0 size=     256KiB time=00:00:01.05 bitrate=1997.6kbits/s speed=0.00896x elapsed=0:01:57.15    \nframe=   66 fps=0.6 q=29.9 size=     256KiB time=00:00:01.06 bitrate=1966.4kbits/s speed=0.00906x elapsed=0:01:57.69    \nframe=   67 fps=0.6 q=23.9 size=     256KiB time=00:00:01.08 bitrate=1936.2kbits/s speed=0.00916x elapsed=0:01:58.23    \nframe=   67 fps=0.6 q=23.9 size=     256KiB time=00:00:01.08 bitrate=1936.2kbits/s speed=0.00912x elapsed=0:01:58.78    \nframe=   68 fps=0.6 q=28.9 size=     256KiB time=00:00:01.10 bitrate=1906.8kbits/s speed=0.00922x elapsed=0:01:59.30    \nframe=   68 fps=0.6 q=28.9 size=     256KiB time=00:00:01.10 bitrate=1906.8kbits/s speed=0.00918x elapsed=0:01:59.82    \nframe=   68 fps=0.6 q=28.9 size=     256KiB time=00:00:01.10 bitrate=1906.8kbits/s speed=0.00914x elapsed=0:02:00.36    \nframe=   69 fps=0.6 q=30.1 size=     256KiB time=00:00:01.11 bitrate=1878.4kbits/s speed=0.00924x elapsed=0:02:00.87    \nframe=   69 fps=0.6 q=30.1 size=     256KiB time=00:00:01.11 bitrate=1878.4kbits/s speed=0.0092x elapsed=0:02:01.39    \nframe=   69 fps=0.6 q=30.1 size=     256KiB time=00:00:01.11 bitrate=1878.4kbits/s speed=0.00916x elapsed=0:02:01.90    \nframe=   70 fps=0.6 q=29.9 size=     256KiB time=00:00:01.13 bitrate=1850.7kbits/s speed=0.00926x elapsed=0:02:02.42    \nframe=   70 fps=0.6 q=29.9 size=     256KiB time=00:00:01.13 bitrate=1850.7kbits/s speed=0.00922x elapsed=0:02:02.93    \nframe=   71 fps=0.6 q=29.9 size=     256KiB time=00:00:01.15 bitrate=1823.9kbits/s speed=0.00931x elapsed=0:02:03.46    \nframe=   71 fps=0.6 q=29.9 size=     256KiB time=00:00:01.15 bitrate=1823.9kbits/s speed=0.00927x elapsed=0:02:04.00    \nframe=   72 fps=0.6 q=23.4 size=     256KiB time=00:00:01.16 bitrate=1797.9kbits/s speed=0.00937x elapsed=0:02:04.52    \nframe=   72 fps=0.6 q=23.4 size=     256KiB time=00:00:01.16 bitrate=1797.9kbits/s speed=0.00933x elapsed=0:02:05.05    \nframe=   72 fps=0.6 q=23.4 size=     256KiB time=00:00:01.16 bitrate=1797.9kbits/s speed=0.00929x elapsed=0:02:05.56    \nframe=   73 fps=0.6 q=26.3 size=     256KiB time=00:00:01.18 bitrate=1772.5kbits/s speed=0.00939x elapsed=0:02:06.08    \nframe=   74 fps=0.6 q=31.1 size=     256KiB time=00:00:01.20 bitrate=1747.9kbits/s speed=0.00948x elapsed=0:02:06.61    \nframe=   74 fps=0.6 q=31.1 size=     256KiB time=00:00:01.20 bitrate=1747.9kbits/s speed=0.00944x elapsed=0:02:07.12    \nframe=   74 fps=0.6 q=31.1 size=     256KiB time=00:00:01.20 bitrate=1747.9kbits/s speed=0.0094x elapsed=0:02:07.64    \nframe=   75 fps=0.6 q=31.1 size=     256KiB time=00:00:01.21 bitrate=1724.0kbits/s speed=0.00949x elapsed=0:02:08.16    \nframe=   75 fps=0.6 q=31.1 size=     256KiB time=00:00:01.21 bitrate=1724.0kbits/s speed=0.00946x elapsed=0:02:08.67    \nframe=   76 fps=0.6 q=31.1 size=     256KiB time=00:00:01.23 bitrate=1700.7kbits/s speed=0.00955x elapsed=0:02:09.19    \nframe=   76 fps=0.6 q=31.1 size=     256KiB time=00:00:01.23 bitrate=1700.7kbits/s speed=0.00951x elapsed=0:02:09.72    \nframe=   77 fps=0.6 q=23.7 size=     256KiB time=00:00:01.25 bitrate=1678.0kbits/s speed=0.0096x elapsed=0:02:10.23    \nframe=   78 fps=0.6 q=28.0 size=     256KiB time=00:00:01.26 bitrate=1655.9kbits/s speed=0.00969x elapsed=0:02:10.75    \nframe=   78 fps=0.6 q=28.0 size=     256KiB time=00:00:01.26 bitrate=1655.9kbits/s speed=0.00965x elapsed=0:02:11.29    \nframe=   79 fps=0.6 q=31.1 size=     256KiB time=00:00:01.28 bitrate=1634.4kbits/s speed=0.00974x elapsed=0:02:11.81    \nframe=   79 fps=0.6 q=31.1 size=     256KiB time=00:00:01.28 bitrate=1634.4kbits/s speed=0.0097x elapsed=0:02:12.33    \nframe=   79 fps=0.6 q=31.1 size=     256KiB time=00:00:01.28 bitrate=1634.4kbits/s speed=0.00966x elapsed=0:02:12.84    \nframe=   80 fps=0.6 q=31.2 size=     256KiB time=00:00:01.30 bitrate=1613.5kbits/s speed=0.00975x elapsed=0:02:13.37    \nframe=   80 fps=0.6 q=31.2 size=     256KiB time=00:00:01.30 bitrate=1613.5kbits/s speed=0.00971x elapsed=0:02:13.91    \nframe=   81 fps=0.6 q=31.1 size=     256KiB time=00:00:01.31 bitrate=1593.0kbits/s speed=0.0098x elapsed=0:02:14.41    \nframe=   82 fps=0.6 q=23.7 size=     256KiB time=00:00:01.33 bitrate=1573.1kbits/s speed=0.00988x elapsed=0:02:14.93    \nframe=   82 fps=0.6 q=23.7 size=     256KiB time=00:00:01.33 bitrate=1573.1kbits/s speed=0.00984x elapsed=0:02:15.46    \nframe=   83 fps=0.6 q=30.0 size=     256KiB time=00:00:01.35 bitrate=1553.7kbits/s speed=0.00993x elapsed=0:02:15.99    \nframe=   84 fps=0.6 q=31.1 size=     256KiB time=00:00:01.36 bitrate=1534.8kbits/s speed=0.01x elapsed=0:02:16.52    \nframe=   84 fps=0.6 q=31.1 size=     256KiB time=00:00:01.36 bitrate=1534.8kbits/s speed=0.00997x elapsed=0:02:17.05    \nframe=   85 fps=0.6 q=31.1 size=     256KiB time=00:00:01.38 bitrate=1516.3kbits/s speed=0.0101x elapsed=0:02:17.57    \nframe=   85 fps=0.6 q=31.1 size=     256KiB time=00:00:01.38 bitrate=1516.3kbits/s speed=0.01x elapsed=0:02:18.13    \nframe=   85 fps=0.6 q=31.1 size=     256KiB time=00:00:01.38 bitrate=1516.3kbits/s speed=0.00998x elapsed=0:02:18.65    \nframe=   85 fps=0.6 q=31.1 size=     256KiB time=00:00:01.38 bitrate=1516.3kbits/s speed=0.00994x elapsed=0:02:19.20    \nframe=   86 fps=0.6 q=31.1 size=     256KiB time=00:00:01.40 bitrate=1498.2kbits/s speed=0.01x elapsed=0:02:19.71    \nframe=   86 fps=0.6 q=31.1 size=     256KiB time=00:00:01.40 bitrate=1498.2kbits/s speed=0.00998x elapsed=0:02:20.25    \nframe=   87 fps=0.6 q=23.7 size=     256KiB time=00:00:01.41 bitrate=1480.6kbits/s speed=0.0101x elapsed=0:02:20.78    \nframe=   87 fps=0.6 q=23.7 size=     256KiB time=00:00:01.41 bitrate=1480.6kbits/s speed=0.01x elapsed=0:02:21.31    \nframe=   87 fps=0.6 q=23.7 size=     256KiB time=00:00:01.41 bitrate=1480.6kbits/s speed=0.00999x elapsed=0:02:21.82    \nframe=   87 fps=0.6 q=23.7 size=     256KiB time=00:00:01.41 bitrate=1480.6kbits/s speed=0.00995x elapsed=0:02:22.34    \nframe=   87 fps=0.6 q=23.7 size=     256KiB time=00:00:01.41 bitrate=1480.6kbits/s speed=0.00992x elapsed=0:02:22.85    \nframe=   87 fps=0.6 q=23.7 size=     256KiB time=00:00:01.41 bitrate=1480.6kbits/s speed=0.00988x elapsed=0:02:23.38    \nframe=   88 fps=0.6 q=29.6 size=     256KiB time=00:00:01.43 bitrate=1463.4kbits/s speed=0.00996x elapsed=0:02:23.90    \nframe=   88 fps=0.6 q=29.6 size=     256KiB time=00:00:01.43 bitrate=1463.4kbits/s speed=0.00992x elapsed=0:02:24.42    \nframe=   88 fps=0.6 q=29.6 size=     256KiB time=00:00:01.43 bitrate=1463.4kbits/s speed=0.00989x elapsed=0:02:24.93    \nframe=   88 fps=0.6 q=29.6 size=     256KiB time=00:00:01.43 bitrate=1463.4kbits/s speed=0.00985x elapsed=0:02:25.46    \nframe=   89 fps=0.6 q=31.1 size=     256KiB time=00:00:01.45 bitrate=1446.6kbits/s speed=0.00993x elapsed=0:02:26.00    \nframe=   89 fps=0.6 q=31.1 size=     256KiB time=00:00:01.45 bitrate=1446.6kbits/s speed=0.0099x elapsed=0:02:26.53    \nframe=   90 fps=0.6 q=23.4 size=     256KiB time=00:00:01.46 bitrate=1430.1kbits/s speed=0.00997x elapsed=0:02:27.05    \nframe=   90 fps=0.6 q=23.4 size=     256KiB time=00:00:01.46 bitrate=1430.1kbits/s speed=0.00994x elapsed=0:02:27.58    \nframe=   90 fps=0.6 q=23.4 size=     256KiB time=00:00:01.46 bitrate=1430.1kbits/s speed=0.0099x elapsed=0:02:28.11    \nframe=   91 fps=0.6 q=29.0 size=     512KiB time=00:00:01.48 bitrate=2827.9kbits/s speed=0.00998x elapsed=0:02:28.64    \nframe=   92 fps=0.6 q=29.6 size=     512KiB time=00:00:01.50 bitrate=2796.4kbits/s speed=0.0101x elapsed=0:02:29.17    \nframe=   92 fps=0.6 q=29.6 size=     512KiB time=00:00:01.50 bitrate=2796.4kbits/s speed=0.01x elapsed=0:02:29.70    \nframe=   92 fps=0.6 q=29.6 size=     512KiB time=00:00:01.50 bitrate=2796.4kbits/s speed=0.00998x elapsed=0:02:30.25    \nframe=   92 fps=0.6 q=29.6 size=     512KiB time=00:00:01.50 bitrate=2796.4kbits/s speed=0.00995x elapsed=0:02:30.78    \nframe=   92 fps=0.6 q=29.6 size=     512KiB time=00:00:01.50 bitrate=2796.4kbits/s speed=0.00991x elapsed=0:02:31.31    \nframe=   92 fps=0.6 q=29.6 size=     512KiB time=00:00:01.50 bitrate=2796.4kbits/s speed=0.00988x elapsed=0:02:31.83    \nframe=   92 fps=0.6 q=29.6 size=     512KiB time=00:00:01.50 bitrate=2796.4kbits/s speed=0.00985x elapsed=0:02:32.35    \nframe=   92 fps=0.6 q=29.6 size=     512KiB time=00:00:01.50 bitrate=2796.4kbits/s speed=0.00981x elapsed=0:02:32.88    \nframe=   93 fps=0.6 q=29.2 size=     512KiB time=00:00:01.51 bitrate=2765.7kbits/s speed=0.00989x elapsed=0:02:33.40    \nframe=   93 fps=0.6 q=29.2 size=     512KiB time=00:00:01.51 bitrate=2765.7kbits/s speed=0.00985x elapsed=0:02:33.92    \nframe=   93 fps=0.6 q=29.2 size=     512KiB time=00:00:01.51 bitrate=2765.7kbits/s speed=0.00982x elapsed=0:02:34.44    \nframe=   94 fps=0.6 q=29.8 size=     512KiB time=00:00:01.53 bitrate=2735.6kbits/s speed=0.00989x elapsed=0:02:34.96    \nframe=   94 fps=0.6 q=29.8 size=     512KiB time=00:00:01.53 bitrate=2735.6kbits/s speed=0.00986x elapsed=0:02:35.50    \nframe=   95 fps=0.6 q=23.5 size=     512KiB time=00:00:01.55 bitrate=2706.2kbits/s speed=0.00993x elapsed=0:02:36.02    \nframe=   95 fps=0.6 q=23.5 size=     512KiB time=00:00:01.55 bitrate=2706.2kbits/s speed=0.0099x elapsed=0:02:36.56    \nframe=   95 fps=0.6 q=23.5 size=     512KiB time=00:00:01.55 bitrate=2706.2kbits/s speed=0.00987x elapsed=0:02:37.10    \nframe=   95 fps=0.6 q=23.5 size=     512KiB time=00:00:01.55 bitrate=2706.2kbits/s speed=0.00983x elapsed=0:02:37.60    \nframe=   96 fps=0.6 q=28.9 size=     512KiB time=00:00:01.56 bitrate=2677.4kbits/s speed=0.00991x elapsed=0:02:38.12    \nframe=   96 fps=0.6 q=28.9 size=     512KiB time=00:00:01.56 bitrate=2677.4kbits/s speed=0.00987x elapsed=0:02:38.65    \nframe=   97 fps=0.6 q=29.8 size=     512KiB time=00:00:01.58 bitrate=2649.3kbits/s speed=0.00995x elapsed=0:02:39.18    \nframe=   97 fps=0.6 q=29.8 size=     512KiB time=00:00:01.58 bitrate=2649.3kbits/s speed=0.00991x elapsed=0:02:39.71    \nframe=   97 fps=0.6 q=29.8 size=     512KiB time=00:00:01.58 bitrate=2649.3kbits/s speed=0.00988x elapsed=0:02:40.23    \nframe=   98 fps=0.6 q=30.1 size=     512KiB time=00:00:01.60 bitrate=2621.7kbits/s speed=0.00995x elapsed=0:02:40.77    \nframe=   98 fps=0.6 q=30.1 size=     512KiB time=00:00:01.60 bitrate=2621.7kbits/s speed=0.00992x elapsed=0:02:41.31    \nframe=   98 fps=0.6 q=30.1 size=     512KiB time=00:00:01.60 bitrate=2621.7kbits/s speed=0.00989x elapsed=0:02:41.85    \nframe=   98 fps=0.6 q=30.1 size=     512KiB time=00:00:01.60 bitrate=2621.7kbits/s speed=0.00985x elapsed=0:02:42.37    \nframe=   98 fps=0.6 q=30.1 size=     512KiB time=00:00:01.60 bitrate=2621.7kbits/s speed=0.00982x elapsed=0:02:42.91    \nframe=   99 fps=0.6 q=30.1 size=     512KiB time=00:00:01.61 bitrate=2594.6kbits/s speed=0.00989x elapsed=0:02:43.42    \nframe=   99 fps=0.6 q=30.1 size=     512KiB time=00:00:01.61 bitrate=2594.6kbits/s speed=0.00986x elapsed=0:02:43.94    \nframe=   99 fps=0.6 q=30.1 size=     512KiB time=00:00:01.61 bitrate=2594.6kbits/s speed=0.00983x elapsed=0:02:44.49    \nframe=  100 fps=0.6 q=23.3 size=     512KiB time=00:00:01.63 bitrate=2568.2kbits/s speed=0.0099x elapsed=0:02:45.03    \nframe=  100 fps=0.6 q=23.3 size=     512KiB time=00:00:01.63 bitrate=2568.2kbits/s speed=0.00986x elapsed=0:02:45.58    \nframe=  100 fps=0.6 q=23.3 size=     512KiB time=00:00:01.63 bitrate=2568.2kbits/s speed=0.00983x elapsed=0:02:46.18    \nframe=  100 fps=0.6 q=23.3 size=     512KiB time=00:00:01.63 bitrate=2568.2kbits/s speed=0.00979x elapsed=0:02:46.75    \nframe=  100 fps=0.6 q=23.3 size=     512KiB time=00:00:01.63 bitrate=2568.2kbits/s speed=0.00976x elapsed=0:02:47.32    \nframe=  100 fps=0.6 q=23.3 size=     512KiB time=00:00:01.63 bitrate=2568.2kbits/s speed=0.00973x elapsed=0:02:47.89    \nframe=  101 fps=0.6 q=29.0 size=     512KiB time=00:00:01.65 bitrate=2542.2kbits/s speed=0.0098x elapsed=0:02:48.43    \nframe=  101 fps=0.6 q=29.0 size=     512KiB time=00:00:01.65 bitrate=2542.2kbits/s speed=0.00977x elapsed=0:02:48.95    \nframe=  101 fps=0.6 q=29.0 size=     512KiB time=00:00:01.65 bitrate=2542.2kbits/s speed=0.00974x elapsed=0:02:49.47    \nframe=  101 fps=0.6 q=29.0 size=     512KiB time=00:00:01.65 bitrate=2542.2kbits/s speed=0.00971x elapsed=0:02:50.00    \nframe=  101 fps=0.6 q=29.0 size=     512KiB time=00:00:01.65 bitrate=2542.2kbits/s speed=0.00968x elapsed=0:02:50.53    \nframe=  102 fps=0.6 q=31.1 size=     512KiB time=00:00:01.66 bitrate=2516.8kbits/s speed=0.00974x elapsed=0:02:51.06    \nframe=  102 fps=0.6 q=31.1 size=     512KiB time=00:00:01.66 bitrate=2516.8kbits/s speed=0.00971x elapsed=0:02:51.61    \nframe=  102 fps=0.6 q=31.1 size=     512KiB time=00:00:01.66 bitrate=2516.8kbits/s speed=0.00968x elapsed=0:02:52.18    \nframe=  102 fps=0.6 q=31.1 size=     512KiB time=00:00:01.66 bitrate=2516.8kbits/s speed=0.00965x elapsed=0:02:52.76    \nframe=  102 fps=0.6 q=31.1 size=     512KiB time=00:00:01.66 bitrate=2516.8kbits/s speed=0.00962x elapsed=0:02:53.33    \nframe=  103 fps=0.6 q=31.0 size=     512KiB time=00:00:01.68 bitrate=2491.9kbits/s speed=0.00968x elapsed=0:02:53.85    \nframe=  103 fps=0.6 q=31.0 size=     512KiB time=00:00:01.68 bitrate=2491.9kbits/s speed=0.00965x elapsed=0:02:54.38    \nframe=  103 fps=0.6 q=31.0 size=     512KiB time=00:00:01.68 bitrate=2491.9kbits/s speed=0.00962x elapsed=0:02:54.95    \nframe=  104 fps=0.6 q=23.8 size=     512KiB time=00:00:01.68 bitrate=2491.9kbits/s speed=0.00959x elapsed=0:02:55.52    \nframe=  104 fps=0.6 q=23.8 size=     512KiB time=00:00:01.70 bitrate=2467.4kbits/s speed=0.00965x elapsed=0:02:56.08    \nframe=  104 fps=0.6 q=23.8 size=     512KiB time=00:00:01.70 bitrate=2467.4kbits/s speed=0.00962x elapsed=0:02:56.66    \nframe=  105 fps=0.6 q=28.9 size=     512KiB time=00:00:01.71 bitrate=2443.5kbits/s speed=0.00969x elapsed=0:02:57.18    \nframe=  105 fps=0.6 q=28.9 size=     512KiB time=00:00:01.71 bitrate=2443.5kbits/s speed=0.00966x elapsed=0:02:57.71    \nframe=  105 fps=0.6 q=28.9 size=     512KiB time=00:00:01.71 bitrate=2443.5kbits/s speed=0.00963x elapsed=0:02:58.24    \nframe=  106 fps=0.6 q=31.1 size=     512KiB time=00:00:01.71 bitrate=2443.5kbits/s speed=0.0096x elapsed=0:02:58.80    \nframe=  106 fps=0.6 q=31.1 size=     512KiB time=00:00:01.73 bitrate=2420.0kbits/s speed=0.00966x elapsed=0:02:59.34    \nframe=  106 fps=0.6 q=31.1 size=     512KiB time=00:00:01.73 bitrate=2420.0kbits/s speed=0.00964x elapsed=0:02:59.86    \nframe=  106 fps=0.6 q=31.1 size=     512KiB time=00:00:01.73 bitrate=2420.0kbits/s speed=0.00961x elapsed=0:03:00.38    \nframe=  106 fps=0.6 q=31.1 size=     512KiB time=00:00:01.73 bitrate=2420.0kbits/s speed=0.00958x elapsed=0:03:00.90    \nframe=  106 fps=0.6 q=31.1 size=     512KiB time=00:00:01.73 bitrate=2420.0kbits/s speed=0.00955x elapsed=0:03:01.46    \nframe=  106 fps=0.6 q=31.1 size=     512KiB time=00:00:01.73 bitrate=2420.0kbits/s speed=0.00953x elapsed=0:03:01.96    \nframe=  107 fps=0.6 q=31.1 size=     512KiB time=00:00:01.75 bitrate=2396.9kbits/s speed=0.00959x elapsed=0:03:02.48    \nframe=  107 fps=0.6 q=31.1 size=     512KiB time=00:00:01.75 bitrate=2396.9kbits/s speed=0.00956x elapsed=0:03:02.99    \nframe=  107 fps=0.6 q=31.1 size=     512KiB time=00:00:01.75 bitrate=2396.9kbits/s speed=0.00954x elapsed=0:03:03.53    \nframe=  108 fps=0.6 q=31.1 size=     512KiB time=00:00:01.76 bitrate=2374.3kbits/s speed=0.0096x elapsed=0:03:04.04    \nframe=  108 fps=0.6 q=31.1 size=     512KiB time=00:00:01.76 bitrate=2374.3kbits/s speed=0.00957x elapsed=0:03:04.56    \nframe=  108 fps=0.6 q=31.1 size=     512KiB time=00:00:01.76 bitrate=2374.3kbits/s speed=0.00955x elapsed=0:03:05.08    \nframe=  109 fps=0.6 q=23.7 size=     512KiB time=00:00:01.78 bitrate=2352.1kbits/s speed=0.00961x elapsed=0:03:05.61    \nframe=  109 fps=0.6 q=23.7 size=     512KiB time=00:00:01.78 bitrate=2352.1kbits/s speed=0.00958x elapsed=0:03:06.15    \nframe=  110 fps=0.6 q=28.9 size=     512KiB time=00:00:01.80 bitrate=2330.4kbits/s speed=0.00964x elapsed=0:03:06.68    \nframe=  110 fps=0.6 q=28.9 size=     512KiB time=00:00:01.80 bitrate=2330.4kbits/s speed=0.00962x elapsed=0:03:07.19    \nframe=  110 fps=0.6 q=28.9 size=     512KiB time=00:00:01.80 bitrate=2330.4kbits/s speed=0.00959x elapsed=0:03:07.72    \nframe=  110 fps=0.6 q=28.9 size=     512KiB time=00:00:01.80 bitrate=2330.4kbits/s speed=0.00956x elapsed=0:03:08.27    \nframe=  111 fps=0.6 q=31.0 size=     512KiB time=00:00:01.81 bitrate=2309.0kbits/s speed=0.00962x elapsed=0:03:08.78    \nframe=  111 fps=0.6 q=31.0 size=     512KiB time=00:00:01.81 bitrate=2309.0kbits/s speed=0.0096x elapsed=0:03:09.30    \nframe=  112 fps=0.6 q=31.1 size=     512KiB time=00:00:01.83 bitrate=2288.0kbits/s speed=0.00966x elapsed=0:03:09.81    \nframe=  112 fps=0.6 q=31.1 size=     512KiB time=00:00:01.83 bitrate=2288.0kbits/s speed=0.00963x elapsed=0:03:10.36    \nframe=  112 fps=0.6 q=31.1 size=     512KiB time=00:00:01.83 bitrate=2288.0kbits/s speed=0.0096x elapsed=0:03:10.88    \nframe=  113 fps=0.6 q=31.3 size=     512KiB time=00:00:01.85 bitrate=2267.4kbits/s speed=0.00967x elapsed=0:03:11.41    \nframe=  114 fps=0.6 q=23.9 size=     512KiB time=00:00:01.86 bitrate=2247.1kbits/s speed=0.00973x elapsed=0:03:11.94    \nframe=  114 fps=0.6 q=23.9 size=     512KiB time=00:00:01.86 bitrate=2247.1kbits/s speed=0.0097x elapsed=0:03:12.47    \nframe=  115 fps=0.6 q=29.8 size=     512KiB time=00:00:01.88 bitrate=2227.3kbits/s speed=0.00976x elapsed=0:03:13.00    \nframe=  115 fps=0.6 q=29.8 size=     512KiB time=00:00:01.88 bitrate=2227.3kbits/s speed=0.00973x elapsed=0:03:13.52    \nframe=  115 fps=0.6 q=29.8 size=     512KiB time=00:00:01.88 bitrate=2227.3kbits/s speed=0.0097x elapsed=0:03:14.07    \nframe=  116 fps=0.6 q=31.3 size=     512KiB time=00:00:01.90 bitrate=2207.7kbits/s speed=0.00976x elapsed=0:03:14.63    \nframe=  116 fps=0.6 q=31.3 size=     512KiB time=00:00:01.90 bitrate=2207.7kbits/s speed=0.00974x elapsed=0:03:15.15    \nframe=  116 fps=0.6 q=31.3 size=     512KiB time=00:00:01.90 bitrate=2207.7kbits/s speed=0.00971x elapsed=0:03:15.67    \nframe=  116 fps=0.6 q=31.3 size=     512KiB time=00:00:01.90 bitrate=2207.7kbits/s speed=0.00968x elapsed=0:03:16.19    \nframe=  117 fps=0.6 q=30.1 size=     512KiB time=00:00:01.91 bitrate=2188.5kbits/s speed=0.00974x elapsed=0:03:16.73    \nframe=  117 fps=0.6 q=30.1 size=     512KiB time=00:00:01.91 bitrate=2188.5kbits/s speed=0.00972x elapsed=0:03:17.25    \nframe=  118 fps=0.6 q=23.7 size=     512KiB time=00:00:01.93 bitrate=2169.7kbits/s speed=0.00978x elapsed=0:03:17.76    \nframe=  118 fps=0.6 q=23.7 size=     512KiB time=00:00:01.93 bitrate=2169.7kbits/s speed=0.00975x elapsed=0:03:18.28    \nframe=  120 fps=0.6 q=30.2 size=     512KiB time=00:00:01.96 bitrate=2132.9kbits/s speed=0.00989x elapsed=0:03:18.82    \nframe=  121 fps=0.6 q=30.2 size=     512KiB time=00:00:01.98 bitrate=2115.0kbits/s speed=0.00995x elapsed=0:03:19.34    \nframe=  121 fps=0.6 q=30.2 size=     512KiB time=00:00:01.98 bitrate=2115.0kbits/s speed=0.00992x elapsed=0:03:19.87    \nframe=  121 fps=0.6 q=30.2 size=     512KiB time=00:00:01.98 bitrate=2115.0kbits/s speed=0.0099x elapsed=0:03:20.40    \nframe=  122 fps=0.6 q=31.0 size=     512KiB time=00:00:02.00 bitrate=2097.3kbits/s speed=0.00995x elapsed=0:03:20.92    \nframe=  122 fps=0.6 q=31.0 size=     512KiB time=00:00:02.00 bitrate=2097.3kbits/s speed=0.00993x elapsed=0:03:21.44    \nframe=  123 fps=0.6 q=23.1 size=     512KiB time=00:00:02.01 bitrate=2080.0kbits/s speed=0.00999x elapsed=0:03:21.96    \nframe=  124 fps=0.6 q=28.9 size=     512KiB time=00:00:02.03 bitrate=2062.9kbits/s speed=0.01x elapsed=0:03:22.50    \nframe=  124 fps=0.6 q=28.9 size=     512KiB time=00:00:02.03 bitrate=2062.9kbits/s speed=0.01x elapsed=0:03:23.05    \nframe=  125 fps=0.6 q=30.2 size=     512KiB time=00:00:02.05 bitrate=2046.2kbits/s speed=0.0101x elapsed=0:03:23.58    \nframe=  126 fps=0.6 q=22.8 size=     512KiB time=00:00:02.06 bitrate=2029.7kbits/s speed=0.0101x elapsed=0:03:24.10    \nframe=  127 fps=0.6 q=27.4 size=     512KiB time=00:00:02.08 bitrate=2013.4kbits/s speed=0.0102x elapsed=0:03:24.62    \nframe=  128 fps=0.6 q=29.7 size=     512KiB time=00:00:02.10 bitrate=1997.5kbits/s speed=0.0102x elapsed=0:03:25.14    \nframe=  128 fps=0.6 q=29.7 size=     512KiB time=00:00:02.10 bitrate=1997.5kbits/s speed=0.0102x elapsed=0:03:25.65    \nframe=  129 fps=0.6 q=30.0 size=     512KiB time=00:00:02.11 bitrate=1981.7kbits/s speed=0.0103x elapsed=0:03:26.18    \nframe=  129 fps=0.6 q=30.0 size=     512KiB time=00:00:02.11 bitrate=1981.7kbits/s speed=0.0102x elapsed=0:03:26.72    \nframe=  129 fps=0.6 q=30.0 size=     512KiB time=00:00:02.11 bitrate=1981.7kbits/s speed=0.0102x elapsed=0:03:27.25    \nframe=  130 fps=0.6 q=29.7 size=     768KiB time=00:00:02.13 bitrate=2949.3kbits/s speed=0.0103x elapsed=0:03:27.78    \nframe=  130 fps=0.6 q=29.7 size=     768KiB time=00:00:02.13 bitrate=2949.3kbits/s speed=0.0102x elapsed=0:03:28.29    \nframe=  132 fps=0.6 q=28.0 size=     768KiB time=00:00:02.16 bitrate=2903.9kbits/s speed=0.0104x elapsed=0:03:28.81    \nframe=  133 fps=0.6 q=30.0 size=     768KiB time=00:00:02.18 bitrate=2881.7kbits/s speed=0.0104x elapsed=0:03:29.32    \nframe=  134 fps=0.6 q=30.0 size=     768KiB time=00:00:02.20 bitrate=2859.9kbits/s speed=0.0105x elapsed=0:03:29.84    \nframe=  134 fps=0.6 q=30.0 size=     768KiB time=00:00:02.20 bitrate=2859.9kbits/s speed=0.0105x elapsed=0:03:30.36    \nframe=  135 fps=0.6 q=30.3 size=     768KiB time=00:00:02.21 bitrate=2838.4kbits/s speed=0.0105x elapsed=0:03:30.87    \nframe=  138 fps=0.7 q=30.2 size=     768KiB time=00:00:02.26 bitrate=2775.8kbits/s speed=0.0107x elapsed=0:03:31.40    \nframe=  139 fps=0.7 q=30.0 size=     768KiB time=00:00:02.28 bitrate=2755.5kbits/s speed=0.0108x elapsed=0:03:31.90    \nframe=  141 fps=0.7 q=22.7 size=     768KiB time=00:00:02.31 bitrate=2715.9kbits/s speed=0.0109x elapsed=0:03:32.42    \nframe=  143 fps=0.7 q=29.9 size=     768KiB time=00:00:02.35 bitrate=2677.4kbits/s speed=0.011x elapsed=0:03:32.94    \nframe=  144 fps=0.7 q=30.3 size=     768KiB time=00:00:02.36 bitrate=2658.5kbits/s speed=0.0111x elapsed=0:03:33.45    \nframe=  147 fps=0.7 q=29.1 size=     768KiB time=00:00:02.41 bitrate=2603.5kbits/s speed=0.0113x elapsed=0:03:33.96    \nframe=  149 fps=0.7 q=29.2 size=     768KiB time=00:00:02.45 bitrate=2568.1kbits/s speed=0.0114x elapsed=0:03:34.49    \nframe=  150 fps=0.7 q=29.3 size=     768KiB time=00:00:02.46 bitrate=2550.7kbits/s speed=0.0115x elapsed=0:03:35.00    \nframe=  153 fps=0.7 q=30.1 size=     768KiB time=00:00:02.51 bitrate=2500.1kbits/s speed=0.0117x elapsed=0:03:35.52    \nframe=  155 fps=0.7 q=29.8 size=     768KiB time=00:00:02.55 bitrate=2467.4kbits/s speed=0.0118x elapsed=0:03:36.02    \nframe=  157 fps=0.7 q=28.9 size=     768KiB time=00:00:02.58 bitrate=2435.5kbits/s speed=0.0119x elapsed=0:03:36.55    \nframe=  159 fps=0.7 q=29.3 size=     768KiB time=00:00:02.61 bitrate=2404.5kbits/s speed=0.0121x elapsed=0:03:37.07    \nframe=  162 fps=0.7 q=28.3 size=     768KiB time=00:00:02.66 bitrate=2359.4kbits/s speed=0.0123x elapsed=0:03:37.57    \nframe=  164 fps=0.8 q=29.0 size=     768KiB time=00:00:02.70 bitrate=2330.3kbits/s speed=0.0124x elapsed=0:03:38.10    \nframe=  165 fps=0.8 q=29.2 size=     768KiB time=00:00:02.71 bitrate=2316.0kbits/s speed=0.0124x elapsed=0:03:38.61    \nframe=  168 fps=0.8 q=30.0 size=     768KiB time=00:00:02.76 bitrate=2274.1kbits/s speed=0.0126x elapsed=0:03:39.12    \nframe=  170 fps=0.8 q=29.0 size=     768KiB time=00:00:02.80 bitrate=2247.1kbits/s speed=0.0127x elapsed=0:03:39.64    \nframe=  172 fps=0.8 q=27.9 size=     768KiB time=00:00:02.83 bitrate=2220.6kbits/s speed=0.0129x elapsed=0:03:40.15    \nframe=  173 fps=0.8 q=28.7 size=    1024KiB time=00:00:02.85 bitrate=2943.5kbits/s speed=0.0129x elapsed=0:03:40.66    \nframe=  176 fps=0.8 q=21.9 size=    1024KiB time=00:00:02.90 bitrate=2892.7kbits/s speed=0.0131x elapsed=0:03:41.18    \nframe=  178 fps=0.8 q=28.9 size=    1024KiB time=00:00:02.93 bitrate=2859.9kbits/s speed=0.0132x elapsed=0:03:41.70    \nframe=  179 fps=0.8 q=28.3 size=    1024KiB time=00:00:02.95 bitrate=2843.7kbits/s speed=0.0133x elapsed=0:03:42.21    \nframe=  181 fps=0.8 q=22.6 size=    1024KiB time=00:00:02.98 bitrate=2811.9kbits/s speed=0.0134x elapsed=0:03:42.73    \nframe=  183 fps=0.8 q=28.9 size=    1024KiB time=00:00:03.01 bitrate=2780.9kbits/s speed=0.0135x elapsed=0:03:43.25    \nframe=  184 fps=0.8 q=28.1 size=    1024KiB time=00:00:03.03 bitrate=2765.6kbits/s speed=0.0136x elapsed=0:03:43.76    \nframe=  185 fps=0.8 q=28.8 size=    1024KiB time=00:00:03.05 bitrate=2750.5kbits/s speed=0.0136x elapsed=0:03:44.28    \nframe=  188 fps=0.8 q=29.2 size=    1024KiB time=00:00:03.10 bitrate=2706.1kbits/s speed=0.0138x elapsed=0:03:44.79    \nframe=  189 fps=0.8 q=30.0 size=    1024KiB time=00:00:03.11 bitrate=2691.6kbits/s speed=0.0138x elapsed=0:03:45.32    \nframe=  191 fps=0.8 q=23.5 size=    1024KiB time=00:00:03.15 bitrate=2663.2kbits/s speed=0.0139x elapsed=0:03:45.82    \nframe=  193 fps=0.9 q=30.2 size=    1024KiB time=00:00:03.18 bitrate=2635.3kbits/s speed=0.0141x elapsed=0:03:46.34    \nframe=  195 fps=0.9 q=31.2 size=    1024KiB time=00:00:03.21 bitrate=2608.0kbits/s speed=0.0142x elapsed=0:03:46.85    \nframe=  197 fps=0.9 q=29.3 size=    1024KiB time=00:00:03.25 bitrate=2581.2kbits/s speed=0.0143x elapsed=0:03:47.37    \nframe=  199 fps=0.9 q=30.1 size=    1024KiB time=00:00:03.28 bitrate=2555.0kbits/s speed=0.0144x elapsed=0:03:47.89    \nframe=  202 fps=0.9 q=30.1 size=    1024KiB time=00:00:03.33 bitrate=2516.7kbits/s speed=0.0146x elapsed=0:03:48.41    \nframe=  203 fps=0.9 q=30.2 size=    1024KiB time=00:00:03.35 bitrate=2504.2kbits/s speed=0.0146x elapsed=0:03:48.93    \nframe=  206 fps=0.9 q=27.8 size=    1024KiB time=00:00:03.40 bitrate=2467.3kbits/s speed=0.0148x elapsed=0:03:49.43    \nframe=  208 fps=0.9 q=30.2 size=    1024KiB time=00:00:03.43 bitrate=2443.4kbits/s speed=0.0149x elapsed=0:03:49.95    \nframe=  209 fps=0.9 q=30.1 size=    1024KiB time=00:00:03.45 bitrate=2431.6kbits/s speed=0.015x elapsed=0:03:50.47    \nframe=  212 fps=0.9 q=30.4 size=    1024KiB time=00:00:03.50 bitrate=2396.8kbits/s speed=0.0152x elapsed=0:03:50.98    \nframe=  214 fps=0.9 q=30.1 size=    1024KiB time=00:00:03.53 bitrate=2374.2kbits/s speed=0.0153x elapsed=0:03:51.50    \nframe=  216 fps=0.9 q=27.7 size=    1280KiB time=00:00:03.56 bitrate=2940.0kbits/s speed=0.0154x elapsed=0:03:52.02    \nframe=  218 fps=0.9 q=30.1 size=    1280KiB time=00:00:03.60 bitrate=2912.8kbits/s speed=0.0155x elapsed=0:03:52.54    \nframe=  219 fps=0.9 q=30.0 size=    1280KiB time=00:00:03.61 bitrate=2899.4kbits/s speed=0.0155x elapsed=0:03:53.04    \nframe=  222 fps=1.0 q=30.2 size=    1280KiB time=00:00:03.66 bitrate=2859.8kbits/s speed=0.0157x elapsed=0:03:53.56    \nframe=  224 fps=1.0 q=30.1 size=    1280KiB time=00:00:03.70 bitrate=2834.1kbits/s speed=0.0158x elapsed=0:03:54.07    \nframe=  227 fps=1.0 q=30.4 size=    1280KiB time=00:00:03.75 bitrate=2796.3kbits/s speed=0.016x elapsed=0:03:54.59    \nframe=  230 fps=1.0 q=23.5 size=    1280KiB time=00:00:03.80 bitrate=2759.5kbits/s speed=0.0162x elapsed=0:03:55.11    \nframe=  234 fps=1.0 q=31.3 size=    1280KiB time=00:00:03.86 bitrate=2711.9kbits/s speed=0.0164x elapsed=0:03:55.63    \nframe=  237 fps=1.0 q=31.3 size=    1280KiB time=00:00:03.91 bitrate=2677.3kbits/s speed=0.0166x elapsed=0:03:56.16    \nframe=  240 fps=1.0 q=31.2 size=    1280KiB time=00:00:03.96 bitrate=2643.6kbits/s speed=0.0168x elapsed=0:03:56.67    \nframe=  243 fps=1.0 q=23.7 size=    1280KiB time=00:00:04.01 bitrate=2610.7kbits/s speed=0.0169x elapsed=0:03:57.19    \nframe=  246 fps=1.0 q=31.0 size=    1280KiB time=00:00:04.06 bitrate=2578.6kbits/s speed=0.0171x elapsed=0:03:57.70    \nframe=  248 fps=1.0 q=21.2 size=    1280KiB time=00:00:04.10 bitrate=2557.6kbits/s speed=0.0172x elapsed=0:03:58.21    \nframe=  252 fps=1.1 q=23.4 size=    1536KiB time=00:00:04.16 bitrate=3020.0kbits/s speed=0.0175x elapsed=0:03:58.73    \nframe=  255 fps=1.1 q=31.4 size=    1536KiB time=00:00:04.21 bitrate=2984.2kbits/s speed=0.0176x elapsed=0:03:59.25    \nframe=  259 fps=1.1 q=31.3 size=    1536KiB time=00:00:04.28 bitrate=2937.7kbits/s speed=0.0179x elapsed=0:03:59.77    \nframe=  261 fps=1.1 q=31.4 size=    1536KiB time=00:00:04.31 bitrate=2915.0kbits/s speed=0.018x elapsed=0:04:00.27    \nframe=  265 fps=1.1 q=31.3 size=    1536KiB time=00:00:04.38 bitrate=2870.7kbits/s speed=0.0182x elapsed=0:04:00.79    \nframe=  268 fps=1.1 q=29.2 size=    1536KiB time=00:00:04.43 bitrate=2838.3kbits/s speed=0.0184x elapsed=0:04:01.31    \nframe=  270 fps=1.1 q=31.4 size=    1536KiB time=00:00:04.46 bitrate=2817.1kbits/s speed=0.0185x elapsed=0:04:01.82    \nframe=  274 fps=1.1 q=31.4 size=    1536KiB time=00:00:04.53 bitrate=2775.7kbits/s speed=0.0187x elapsed=0:04:02.34    \nframe=  276 fps=1.1 q=31.4 size=    1536KiB time=00:00:04.56 bitrate=2755.5kbits/s speed=0.0188x elapsed=0:04:02.86    \nframe=  280 fps=1.2 q=31.4 size=    1536KiB time=00:00:04.63 bitrate=2715.8kbits/s speed=0.019x elapsed=0:04:03.36    \nframe=  284 fps=1.2 q=31.5 size=    1536KiB time=00:00:04.70 bitrate=2677.3kbits/s speed=0.0193x elapsed=0:04:03.88    \nframe=  287 fps=1.2 q=26.2 size=    1536KiB time=00:00:04.75 bitrate=2649.1kbits/s speed=0.0194x elapsed=0:04:04.41    \nframe=  290 fps=1.2 q=31.4 size=    1536KiB time=00:00:04.80 bitrate=2621.5kbits/s speed=0.0196x elapsed=0:04:04.93    \nframe=  293 fps=1.2 q=30.1 size=    1536KiB time=00:00:04.85 bitrate=2594.5kbits/s speed=0.0198x elapsed=0:04:05.43    \nframe=  296 fps=1.2 q=31.4 size=    1792KiB time=00:00:04.90 bitrate=2996.0kbits/s speed=0.0199x elapsed=0:04:05.95    \n[mp4 @ 0000026870d0a700] Starting second pass: moving the moov atom to the beginning of the file\n[out#0/mp4 @ 0000026870d0a600] video:1819KiB audio:0KiB subtitle:0KiB other streams:0KiB global headers:2KiB muxing overhead: 0.369963%\nframe=  300 fps=1.2 q=31.4 Lsize=    1825KiB time=00:00:04.96 bitrate=3010.9kbits/s speed=0.0202x elapsed=0:04:06.38    \nx265 [info]: frame I:      2, Avg QP:27.40  kb/s: 29077.92\nx265 [info]: frame P:     62, Avg QP:24.32  kb/s: 7140.58 \nx265 [info]: frame B:    236, Avg QP:30.52  kb/s: 1663.05 \nx265 [info]: Weighted P-Frames: Y:0.0% UV:0.0%\n\nencoded 300 frames in 245.94s (1.22 fps), 2977.84 kb/s, Avg QP:29.22\n",
  "seconds": 246.70163106918335,
  "probe_out": {}
}